<svg height="354" viewBox="0 0 416 354" width="416" xmlns="http://www.w3.org/2000/svg"><g fill="none" fill-rule="evenodd"><g fill="#ebe7f2" transform="translate(4 107)"><path d="m131.162 191.166h145.676c5.546 0 10.554 2.306 14.116 6.012h5.464c0-10.814-8.766-19.58-19.58-19.58h-145.676c-10.814 0-19.58 8.766-19.58 19.58h5.464c3.562-3.704 8.57-6.012 14.116-6.012z"/><path d="m184.044.5h39.912v22.834h-39.912z"/><path d="m67.176 85.15c-26.96 0-50.118-16.278-60.182-39.542h-5.36c0 36.198 29.344 65.542 65.542 65.542s65.542-29.344 65.542-65.542h-5.36c-10.064 23.262-33.222 39.542-60.182 39.542z"/><path d="m340.824 85.15c-26.96 0-50.118-16.278-60.182-39.542h-5.36c0 36.198 29.344 65.542 65.542 65.542s65.542-29.344 65.542-65.542h-5.36c-10.064 23.262-33.222 39.542-60.182 39.542z"/><path d="m77.262 226.674c-1.1 2.692-1.708 5.638-1.708 8.724v5.634h256.89v-5.632c0-3.088-.608-6.032-1.708-8.724h-253.474z"/></g><g fill="#014f39"><path d="m110.582 304.178c0 2.762 2.238 5 5 5s5-2.238 5-5c0-8.04 6.542-14.58 14.58-14.58h145.676c8.04 0 14.58 6.54 14.58 14.58 0 2.762 2.238 5 5 5s5-2.238 5-5c0-13.554-11.028-24.58-24.58-24.58h-145.676c-13.554 0-24.58 11.028-24.58 24.58z"/><path d="m313.362 314.316h-210.724c-15.486 0-28.084 12.598-28.084 28.084v5.634c0 2.762 2.238 5 5 5h256.89c2.762 0 5-2.238 5-5v-5.634c.002-15.486-12.596-28.084-28.082-28.084zm18.084 28.718h-246.892v-.634c0-9.97 8.112-18.084 18.084-18.084h210.724c9.97 0 18.084 8.112 18.084 18.084z" fill-rule="nonzero"/><path d="m193.044 266.5v-159c0-2.762-2.238-5-5-5s-5 2.238-5 5v159c0 2.762 2.238 5 5 5s5-2.238 5-5z"/><path d="m232.954 266.5v-159c0-2.762-2.238-5-5-5s-5 2.238-5 5v159c0 2.762 2.238 5 5 5s5-2.238 5-5z"/><path d="m415.364 152.71c0-.034.002-.07.002-.104 0-.11-.026-.214-.032-.324-.012-.202-.022-.402-.06-.6-.03-.16-.082-.31-.126-.464-.046-.158-.084-.314-.144-.468-.076-.186-.172-.358-.268-.532-.054-.098-.088-.2-.15-.296l-65.546-102.862c-.01-.014-.024-.026-.032-.04-.208-.32-.452-.61-.726-.874-.07-.066-.148-.12-.22-.182-.216-.186-.444-.352-.69-.5-.104-.062-.208-.118-.316-.172-.246-.124-.502-.222-.768-.304-.104-.032-.204-.072-.31-.096-.372-.088-.754-.146-1.152-.146h-88.3c-2.512-24.558-23.316-43.78-48.524-43.78-25.21 0-46.014 19.222-48.526 43.78h-88.3c-.398 0-.78.058-1.152.146-.106.024-.204.064-.308.096-.268.082-.524.182-.77.306-.108.054-.212.11-.314.17-.246.146-.476.314-.692.5-.072.062-.15.114-.22.18-.274.264-.518.554-.726.874-.01.014-.024.026-.032.04l-65.542 102.86c-.06.094-.096.198-.15.294-.096.176-.194.348-.268.534-.06.152-.098.306-.142.46-.046.158-.098.312-.13.476-.036.194-.046.388-.058.582-.008.114-.034.224-.034.34 0 .036.002.072.002.11v.04c.082 38.828 31.692 70.394 70.54 70.394s70.458-31.566 70.54-70.394c0-.014.002-.026.002-.04 0-.036.002-.072.002-.11 0-.116-.026-.226-.034-.34-.014-.196-.022-.388-.058-.582-.03-.164-.084-.318-.13-.476-.044-.154-.082-.308-.142-.458-.076-.188-.174-.36-.27-.536-.054-.098-.088-.2-.148-.294l-60.652-95.172h79.184c2.512 24.558 23.316 43.78 48.526 43.78 25.208 0 46.012-19.222 48.524-43.78h79.184l-60.646 95.174c-.062.096-.096.2-.15.298-.096.174-.194.346-.268.53-.062.154-.1.312-.146.468-.044.154-.098.306-.126.466-.038.198-.048.398-.06.598-.008.11-.032.214-.032.326 0 .036.002.07.002.104 0 .016 0 .034.002.05.084 38.826 31.692 70.388 70.54 70.388s70.456-31.562 70.54-70.388c0-.016 0-.032 0-.05zm-14.112-5.104h-112.856l56.428-88.556zm-330.076-88.556 56.428 88.556h-112.856zm0 154.1c-31.7 0-57.788-24.49-60.338-55.544h120.678c-2.552 31.054-28.64 55.544-60.34 55.544zm136.824-124.624c-21.384 0-38.78-17.396-38.78-38.78 0-21.382 17.396-38.78 38.78-38.78 21.382 0 38.78 17.396 38.78 38.78s-17.398 38.78-38.78 38.78zm136.824 124.624c-31.702 0-57.79-24.49-60.338-55.544h120.676c-2.548 31.054-28.636 55.544-60.338 55.544z" fill-rule="nonzero"/></g><path d="m230.949307 46.8391371-9.969168 7.2517789c-.888903.6470055-1.260755 1.7938891-.920776 2.8397336l3.807054 11.7329564c.75964 2.3398553-1.915922 4.2861896-3.904444 2.8397335l-9.969168-7.2500063c-.888902-.6470054-2.092994-.6470054-2.983667 0l-9.969168 7.2500063c-1.988522 1.4464561-4.664083-.4998782-3.904443-2.8397335l3.807053-11.7329564c.339979-1.0476171-.031873-2.1927281-.922546-2.8397336l-9.969168-7.2517789c-1.988522-1.446456-.966815-4.5963976 1.490948-4.5963976h12.322458c1.099619 0 2.073516-.7090471 2.413495-1.7548916l3.807054-11.7329564c.75964-2.3398553 4.067349-2.3398553 4.826989 0l3.807054 11.7329564c.339979 1.0458445 1.313876 1.7548916 2.413495 1.7548916h12.322458c2.461304 0 3.483011 3.1499416 1.49449 4.5963976z" fill="#a29062"/></g></svg>