<svg height="464" viewBox="0 0 464 464" width="464" xmlns="http://www.w3.org/2000/svg"><g fill="none" fill-rule="evenodd"><path d="m267.08 121.028h-35.08v-22.724h35.08c1.462 0 2.648 1.186 2.648 2.648v17.43c0 1.462-1.186 2.646-2.648 2.646z" fill="#a29062"/><g fill="#ebe7f2" transform="translate(134 206)"><path d="m11.496 132.08h173.006v7.618h-173.006z"/><path d="m25.084 90.69h27.254v17.62h-27.254z"/><path d="m84.374 90.69h27.254v17.62h-27.254z"/><path d="m143.662 90.69h27.254v17.62h-27.254z"/><path d="m25.084 32.278h27.254v17.62h-27.254z"/><path d="m84.374 32.278h27.254v17.62h-27.254z"/><path d="m143.662 32.278h27.254v17.62h-27.254z"/><path d="m188.778 14.92h-181.556c-3.892 0-7.048-3.156-7.048-7.048s3.156-7.048 7.048-7.048h181.556c3.892 0 7.048 3.156 7.048 7.048s-3.156 7.048-7.048 7.048z"/></g><g fill="#014f39"><g fill-rule="nonzero"><path d="m322.778 201.824h-181.556c-6.644 0-12.048 5.406-12.048 12.048 0 6.644 5.406 12.048 12.048 12.048h181.554c6.644 0 12.048-5.404 12.048-12.048.002-6.644-5.404-12.048-12.046-12.048zm0 14.096h-181.556c-1.13 0-2.048-.918-2.048-2.048s.92-2.048 2.048-2.048h181.554c1.13 0 2.048.92 2.048 2.048.002 1.13-.916 2.048-2.046 2.048z"/><path d="m312.578 325.462h-161.156c-6.024 0-10.924 4.9-10.924 10.924v9.31c0 2.762 2.238 5 5 5h173.006c2.762 0 5-2.238 5-5v-9.31c-.002-6.024-4.902-10.924-10.926-10.924zm.924 15.234h-163.006v-4.31c0-.51.416-.924.924-.924h161.156c.51 0 .924.416.924.924v4.31z"/><path d="m149.928 318.26c0 2.762 2.238 5 5 5 2.402 0 4.408-1.694 4.89-3.95h25.788c.482 2.256 2.488 3.95 4.89 3.95 2.762 0 5-2.238 5-5 0-3.17-1.666-5.942-4.158-7.532v-68.866c2.492-1.59 4.158-4.364 4.158-7.532 0-2.762-2.238-5-5-5-2.402 0-4.408 1.694-4.89 3.95h-25.788c-.482-2.256-2.488-3.95-4.89-3.95-2.762 0-5 2.238-5 5 0 3.168 1.666 5.942 4.156 7.532v68.868c-2.49 1.59-4.156 4.362-4.156 7.53zm31.408-74.98v66.032h-17.252v-66.032z"/><path d="m268.506 318.26c0 2.762 2.238 5 5 5 2.402 0 4.408-1.694 4.89-3.95h25.786c.482 2.256 2.488 3.95 4.89 3.95 2.762 0 5-2.238 5-5 0-3.168-1.666-5.942-4.156-7.532v-68.868c2.49-1.59 4.156-4.364 4.156-7.532 0-2.762-2.238-5-5-5-2.402 0-4.408 1.694-4.89 3.95h-25.786c-.482-2.256-2.488-3.95-4.89-3.95-2.762 0-5 2.238-5 5 0 3.17 1.666 5.942 4.158 7.532v68.866c-2.492 1.592-4.158 4.366-4.158 7.534zm31.41-74.98v66.032h-17.254v-66.032z"/><path d="m209.216 318.26c0 2.762 2.238 5 5 5 2.402 0 4.408-1.694 4.89-3.95h25.788c.482 2.256 2.488 3.95 4.89 3.95 2.762 0 5-2.238 5-5 0-3.168-1.666-5.942-4.156-7.532v-68.868c2.49-1.59 4.156-4.364 4.156-7.532 0-2.762-2.238-5-5-5-2.402 0-4.408 1.694-4.89 3.95h-25.788c-.482-2.256-2.488-3.95-4.89-3.95-2.762 0-5 2.238-5 5 0 3.168 1.666 5.942 4.156 7.532v68.868c-2.49 1.592-4.156 4.364-4.156 7.532zm31.41-74.98v66.032h-17.254v-66.032z"/></g><path d="m173.102 197.81c2.762 0 5-2.238 5-5 0-29.718 24.178-53.898 53.898-53.898 29.718 0 53.898 24.178 53.898 53.898 0 2.762 2.238 5 5 5s5-2.238 5-5c0-33.55-25.994-61.122-58.898-63.684v-30.822c0-2.762-2.238-5-5-5s-5 2.238-5 5v30.822c-32.904 2.562-58.898 30.134-58.898 63.684 0 2.762 2.238 5 5 5z"/><path d="m464 232c0-22.054-20.566-37.378-41.96-51.804 10.96-22.906 21.29-46.266 10.894-64.236-10.67-18.44-36.108-21.326-61.656-23.236-1.908-25.548-4.794-50.988-23.236-61.656-17.974-10.398-41.332-.068-64.236 10.892-14.428-21.394-29.752-41.96-51.806-41.96s-37.378 20.566-51.804 41.96c-22.906-10.96-46.268-21.288-64.236-10.892-18.44 10.668-21.326 36.108-23.234 61.656-25.548 1.908-50.988 4.794-61.656 23.236-10.396 17.972-.066 41.332 10.894 64.236-21.398 14.426-41.964 29.75-41.964 51.804s20.566 37.378 41.96 51.804c-10.958 22.906-21.29 46.266-10.894 64.236 10.67 18.44 36.108 21.326 61.656 23.236 1.908 25.548 4.796 50.988 23.236 61.656 5.252 3.038 10.962 4.306 16.988 4.306 14.596 0 31.036-7.442 47.248-15.2 14.428 21.396 29.752 41.962 51.806 41.962s37.378-20.566 51.804-41.96c22.906 10.96 46.268 21.29 64.236 10.892 18.44-10.668 21.326-36.108 23.236-61.656 25.548-1.908 50.988-4.796 61.656-23.236 10.398-17.972.066-41.332-10.894-64.236 21.396-14.426 41.962-29.75 41.962-51.804zm-102.068 129.932c-18.04 1.33-36.254 3.068-48.946 10.41-12.364 7.154-22.31 21.488-32.666 36.94-16.424-7.836-33.178-15.282-48.32-15.282s-31.896 7.446-48.32 15.282c-10.356-15.452-20.304-29.788-32.666-36.94-12.692-7.342-30.906-9.08-48.946-10.41-1.33-18.04-3.068-36.254-10.41-48.946-7.154-12.364-21.488-22.31-36.94-32.666 7.836-16.424 15.282-33.178 15.282-48.32s-7.446-31.896-15.282-48.32c15.452-10.356 29.788-20.304 36.94-32.666 7.342-12.692 9.078-30.906 10.41-48.946 18.04-1.33 36.254-3.068 48.946-10.41 12.364-7.154 22.31-21.488 32.666-36.94 16.424 7.838 33.178 15.282 48.32 15.282s31.896-7.444 48.318-15.282c10.356 15.452 20.304 29.788 32.666 36.94 12.692 7.342 30.906 9.078 48.946 10.41 1.33 18.04 3.068 36.254 10.41 48.946 7.154 12.364 21.488 22.31 36.94 32.666-7.836 16.424-15.28 33.178-15.28 48.32s7.444 31.896 15.282 48.32c-15.452 10.356-29.788 20.304-36.94 32.666-7.342 12.692-9.08 30.906-10.41 48.946zm62.344-240.966c7.69 13.292-.674 32.728-10.63 53.598-13.506-9.076-26.81-18.466-32.648-28.558-6.058-10.472-7.746-26.78-8.982-43.196 22.432 1.718 44.314 4.422 52.26 18.156zm-81.242-81.242c13.736 7.948 16.438 29.828 18.156 52.26-16.416-1.236-32.724-2.924-43.196-8.982-10.094-5.84-19.484-19.144-28.558-32.65 20.868-9.956 40.302-18.32 53.598-10.628zm-111.034-29.724c16.602 0 29.976 17.568 42.684 36.326-14.976 7.114-30.068 13.674-42.684 13.674s-27.708-6.56-42.686-13.674c12.71-18.758 26.084-36.326 42.686-36.326zm-111.034 29.724c13.296-7.692 32.728.674 53.598 10.63-9.076 13.506-18.466 26.81-28.558 32.648-10.472 6.058-26.78 7.746-43.196 8.982 1.718-22.432 4.422-44.314 18.156-52.26zm-81.242 81.242c7.946-13.736 29.828-16.438 52.26-18.156-1.236 16.416-2.924 32.724-8.982 43.196-5.84 10.094-19.144 19.484-32.65 28.558-9.954-20.868-18.318-40.304-10.628-53.598zm-29.724 111.034c0-16.602 17.568-29.976 36.326-42.684 7.114 14.976 13.674 30.068 13.674 42.684s-6.56 27.708-13.674 42.684c-18.758-12.708-36.326-26.082-36.326-42.684zm29.724 111.034c-7.69-13.292.674-32.728 10.63-53.598 13.506 9.076 26.81 18.466 32.65 28.558 6.058 10.472 7.746 26.78 8.982 43.196-22.436-1.718-44.316-4.422-52.262-18.156zm81.242 81.242c-13.736-7.946-16.438-29.828-18.156-52.26 16.416 1.236 32.724 2.924 43.196 8.982 10.094 5.84 19.484 19.144 28.558 32.648-20.87 9.956-40.308 18.318-53.598 10.63zm111.034 29.724c-16.602 0-29.976-17.568-42.686-36.326 14.978-7.114 30.07-13.674 42.686-13.674s27.708 6.56 42.684 13.674c-12.708 18.758-26.082 36.326-42.684 36.326zm111.034-29.724c-13.294 7.692-32.728-.674-53.598-10.63 9.076-13.506 18.466-26.81 28.558-32.65 10.472-6.058 26.78-7.746 43.196-8.982-1.718 22.436-4.422 44.316-18.156 52.262zm81.242-81.242c-7.946 13.736-29.828 16.438-52.26 18.156 1.236-16.416 2.924-32.724 8.982-43.196 5.84-10.094 19.144-19.484 32.648-28.558 9.956 20.868 18.32 40.304 10.63 53.598zm-6.602-68.35c-7.114-14.976-13.674-30.068-13.674-42.684s6.56-27.708 13.674-42.684c18.758 12.708 36.326 26.082 36.326 42.684s-17.568 29.976-36.326 42.684z" fill-rule="nonzero"/></g></g></svg>