<svg height="322" viewBox="0 0 414 322" width="414" xmlns="http://www.w3.org/2000/svg"><g fill="none" fill-rule="evenodd"><g fill="#ebe7f2" transform="translate(5 72)"><path d="m106.736 136.376c6.02-6.02 15.782-6.02 21.802 0s6.02 15.782 0 21.804l13.168-13.16c3.03-3.03 7.01-4.532 10.982-4.512l-77.706-77.706-18.142 18.142 28.21 28.21 17.562 31.346z"/><path d="m233.706 211.918-7.664-7.666-.584.75c2.636 5.7 1.604 12.676-3.096 17.374-3.732 3.732-8.9 5.15-13.724 4.256l-1.672 2.15 4.938 4.938c6.02 6.02 15.782 6.02 21.804 0 6.02-6.02 6.02-15.782-.002-21.802z"/><path d="m259.536 194.132-.578.14c-3.518.854-6.316 3.33-7.99 6.542-.842 1.618-1.992 3.118-3.45 4.412-6.162 5.482-15.67 4.822-21.504-1.01l-1.566-1.564-.006.002 13.288 13.28c6.02 6.02 15.782 6.02 21.802 0 6.026-6.018 6.026-15.78.004-21.802z"/><path d="m283.972 174.96-.79.14c-3.358.598-6.054 2.916-7.51 6-.738 1.562-1.752 3.028-3.044 4.32-6.02 6.02-15.78 6.02-21.8.002l17.726 17.726c5.69 5.69 15.418 1.66 15.418-6.386 6.022-6.02 6.022-15.782 0-21.802z"/><path d="m310.554 157.934-.33.036c-3.532.386-6.422 2.742-7.908 5.97-.786 1.71-1.904 3.306-3.35 4.692-6.126 5.868-15.982 5.34-21.98-.658l-5.746-5.746 17.052 17.052c5.97 5.97 15.774 6.574 21.92.788 6.36-5.99 6.472-16.002.342-22.134z"/><path d="m128.54 158.178-.668.668z"/><path d="m127.872 158.846c-6.02 6.02-15.782 6.02-21.804 0-6.018-6.02-6.02-15.778-.004-21.798l-14.822 14.822c-6.02 6.02-6.02 15.782 0 21.802s15.782 6.02 21.804 0z"/><path d="m170.38 225.366c-5.842-5.842-6.014-15.206-.52-21.256-.186.168-.368.342-.548.522l-13.758 13.76c-6.02 6.02-6.02 15.782 0 21.802s15.782 6.02 21.802 0l13.76-13.758c.18-.18.352-.362.522-.548-6.052 5.492-15.416 5.32-21.258-.522z"/><path d="m145.036 185.298c-6.02 6.02-15.782 6.02-21.802 0s-6.02-15.782 0-21.802l-14.826 14.826c-6.02 6.02-6.02 15.782 0 21.802s15.782 6.02 21.802 0z"/><path d="m178.238 195.704c.002 0 .002-.002.002-.002l-11.4 11.4c-6.02 6.02-15.782 6.02-21.804 0-6.02-6.02-6.02-15.782 0-21.802l11.396-11.396-26.224 26.224c-6.02 6.02-6.02 15.782 0 21.802s15.782 6.02 21.802 0z"/><path d="m88.638 49.148-39.234 39.232c-1.374 1.374-3.602 1.374-4.976 0l-43.396-43.396c-1.374-1.374-1.374-3.602 0-4.976l39.234-39.234z"/><path d="m354.596 82.75-29.508-29.508 48.374-48.374 29.508 29.508c1.374 1.374 1.374 3.602 0 4.976l-43.396 43.396c-1.376 1.376-3.604 1.376-4.978.002z"/><path d="m330.17 58.324-5.082-5.082-60.05 60.05 28.624 28.624 29.1-44.928 23.036-23.036z"/></g><g fill="#014f39"><path d="m411.504 102.842-99.532-99.534c-3.324-3.318-8.726-3.318-12.046.002l-43.396 43.396c-3.322 3.322-3.322 8.726 0 12.048l2.438 2.438-24.942 24.942h-32.166c-5.35 0-10.386 1.962-14.336 5.512l-15.91-5.144-18.13-18.13 3.986-3.986c1.61-1.61 2.496-3.75 2.496-6.026s-.886-4.416-2.496-6.024l-43.396-43.396c-1.608-1.61-3.748-2.496-6.024-2.496s-4.414.886-6.024 2.496l-99.532 99.532c-3.322 3.322-3.322 8.726 0 12.048l43.396 43.396c1.66 1.662 3.842 2.492 6.024 2.492s4.364-.83 6.024-2.492l3.902-3.902 24.186 24.186 8.804 15.714c.916 1.636 2.616 2.558 4.368 2.558.828 0 1.666-.206 2.438-.638 2.41-1.35 3.268-4.398 1.918-6.806l-9.142-16.318c-.224-.4-.502-.768-.826-1.092l-24.674-24.674 77.5-77.502 18.982 18.982c.56.56 1.244.978 1.996 1.222l12.128 3.922-35.426 35.424c-7.06 7.062-8.234 18.052-2.792 26.136 3.504 5.206 9.046 8.534 15.202 9.128 6.158.596 12.198-1.57 16.568-5.942l34.458-34.456 87.594 87.592c.942.944 2.216 1.464 3.536 1.464.174 0 .35-.008.526-.028 1.502-.158 2.85-.988 3.672-2.254l28.812-44.482 19.126-19.128 5.262 5.262v.002c1.662 1.658 3.842 2.488 6.024 2.488s4.364-.83 6.024-2.49l43.396-43.394c1.61-1.61 2.496-3.748 2.496-6.026s-.882-4.414-2.492-6.022zm-400.89 11.654 97.438-97.438 41.3 41.302-97.436 97.438zm313.612 50.958c-.248.248-.47.522-.662.818l-25.738 39.736-86.758-86.756c-.976-.976-2.256-1.464-3.536-1.464s-2.56.488-3.536 1.464l-37.994 37.994c-2.25 2.25-5.362 3.364-8.534 3.058-3.218-.312-6.014-2.002-7.87-4.76-2.778-4.124-2.118-9.794 1.568-13.48l42.562-42.562c2.172-2.172 5.06-3.368 8.13-3.368h34.236c1.326 0 2.598-.526 3.536-1.464l26.406-26.406 38.846 38.844 38.846 38.846zm37.858-15.286-7.75-7.75-51.824-51.822-37.864-37.864 41.302-41.302 97.438 97.438z" fill-rule="nonzero"/><path d="m189.63 267.624c4.928-7.88 3.988-18.41-2.858-25.258-3.042-3.044-6.818-4.914-10.762-5.63 1.306-2.72 2.016-5.71 2.016-8.816 0-5.454-2.124-10.58-5.98-14.436-7.958-7.96-20.914-7.96-28.874 0l-.772.772c-.87-3.45-2.63-6.722-5.326-9.416-7.958-7.96-20.914-7.96-28.874 0l-15.494 15.494c-7.96 7.96-7.96 20.912 0 28.874 3.396 3.398 7.704 5.332 12.144 5.83-.626 1.976-.96 4.054-.96 6.186 0 5.454 2.124 10.582 5.98 14.436 3.98 3.98 9.208 5.97 14.436 5.97.49 0 .978-.036 1.466-.07-.408 5.706 1.548 11.55 5.9 15.904 3.98 3.98 9.208 5.97 14.436 5.97 1.682 0 3.358-.228 5-.64.354 4.886 2.408 9.436 5.906 12.934 3.856 3.856 8.984 5.98 14.438 5.98s10.582-2.124 14.436-5.98l13.758-13.758c7.96-7.96 7.96-20.914 0-28.874-2.846-2.852-6.342-4.664-10.016-5.472zm-89.852-40.218 15.494-15.494c2.032-2.03 4.698-3.046 7.366-3.046s5.336 1.016 7.366 3.046c4.062 4.062 4.062 10.67 0 14.732l-15.494 15.494c-4.062 4.06-10.67 4.06-14.732 0-4.062-4.062-4.062-10.672 0-14.732zm17.164 41.182c-1.968-1.966-3.05-4.584-3.05-7.366s1.082-5.398 3.05-7.366l33.3-33.302c2.032-2.03 4.698-3.046 7.366-3.046 2.666 0 5.334 1.016 7.366 3.046 1.968 1.966 3.05 4.584 3.05 7.366s-1.082 5.398-3.05 7.366v.002l-33.3 33.3c-4.062 4.062-10.67 4.062-14.732 0zm21.804 21.806c-4.062-4.062-4.062-10.67 0-14.734l26.224-26.224c2.032-2.03 4.698-3.046 7.366-3.046s5.334 1.016 7.366 3.046c4.062 4.062 4.062 10.67 0 14.734l-26.224 26.224c-4.06 4.06-10.668 4.06-14.732 0zm53.834 4.504-13.76 13.758c-1.966 1.968-4.584 3.05-7.366 3.05s-5.398-1.084-7.366-3.052c-1.968-1.966-3.05-4.582-3.05-7.366 0-2.782 1.084-5.398 3.05-7.366l13.758-13.758c2.032-2.03 4.698-3.046 7.366-3.046s5.334 1.016 7.366 3.046c4.064 4.064 4.064 10.674.002 14.734z" fill-rule="nonzero"/><path d="m312.018 226.398c-1.954 1.952-1.954 5.118 0 7.07 1.966 1.968 3.05 4.584 3.05 7.366s-1.084 5.398-3.05 7.366c-1.968 1.968-4.584 3.052-7.366 3.052-2.784 0-5.398-1.084-7.368-3.052l-17.51-17.508c-1.954-1.954-5.118-1.954-7.07 0-1.952 1.952-1.952 5.118 0 7.07l12.73 12.728.004.004c4.06 4.062 4.06 10.67 0 14.732-1.968 1.968-4.584 3.052-7.368 3.052-2.782 0-5.398-1.084-7.366-3.05l-15.216-15.216c-1.954-1.954-5.118-1.954-7.07 0-1.954 1.952-1.954 5.118 0 7.07l12.572 12.57c.004.004.008.01.012.016 1.966 1.966 3.05 4.584 3.05 7.366s-1.084 5.398-3.05 7.366c-1.968 1.968-4.584 3.052-7.368 3.052-2.782 0-5.396-1.084-7.366-3.054l-13.29-13.28c-1.954-1.952-5.12-1.952-7.072.002s-1.952 5.12.002 7.072l1.59 1.588c.002.002.004.006.006.008l7.666 7.664c4.06 4.062 4.06 10.67 0 14.732-1.968 1.968-4.584 3.052-7.368 3.052-2.782 0-5.398-1.084-7.366-3.05l-4.938-4.938c-1.954-1.952-5.118-1.952-7.07 0-1.954 1.952-1.954 5.118 0 7.07l4.938 4.938c3.856 3.856 8.982 5.98 14.436 5.98s10.58-2.124 14.438-5.98c3.506-3.506 5.462-7.98 5.88-12.57 1.774.496 3.62.768 5.512.768 5.454 0 10.582-2.124 14.438-5.98 3.658-3.656 5.732-8.458 5.94-13.596 1.322.266 2.68.404 4.058.404 5.454 0 10.58-2.124 14.438-5.98 3.288-3.288 5.302-7.502 5.83-12.052 2.014.654 4.136 1.006 6.316 1.006 5.454 0 10.58-2.126 14.436-5.98 3.858-3.856 5.98-8.984 5.98-14.438s-2.122-10.58-5.98-14.436c-1.954-1.956-5.118-1.956-7.07-.004z"/></g><path d="m205 14c-12.150309 0-22 9.8496912-22 22s9.849691 22 22 22 22-9.8496912 22-22-9.849691-22-22-22zm13.786033 19.0786686-6.122094 4.4477132c-.54561.3965059-.774236 1.1000553-.56549 1.7428586l2.338169 7.1967468c.466088 1.4358151-1.176264 2.6297505-2.397811 1.7417542l-6.122094-4.4477133c-.546715-.3965058-1.285607-.3965058-1.832321 0l-6.122095 4.4477133c-1.221547.8879963-2.865003-.3059391-2.397811-1.7417542l2.33817-7.1967468c.208745-.6428033-.019881-1.3452482-.566595-1.7428586l-6.122094-4.4477132c-1.221548-.8868919-.594207-2.8186154.915608-2.8186154h7.56785c.674833 0 1.273457-.4351624 1.482202-1.0768613l2.33817-7.1967468c.466088-1.435815 2.498318-1.435815 2.964406 0l2.33817 7.1967468c.208745.6416989.807369 1.0768613 1.482202 1.0768613h7.56785c1.509815 0 2.137156 1.9317235.915608 2.8186154z" fill="#a29062" fill-rule="nonzero"/></g></svg>