<svg height="362" viewBox="0 0 280 362" width="280" xmlns="http://www.w3.org/2000/svg"><g fill="none" fill-rule="evenodd"><g fill="#ebe7f2" transform="translate(4 53)"><path d="m1.482 235.444h229.036v27.888h-229.036z"/><circle cx="162.486" cy="16.482" r="15.808"/><circle cx="162.486" cy="199.518" r="15.808"/></g><path d="m158.59 176.758-11.294-12.8c-1.826-2.07-1.63-5.23.442-7.058 2.07-1.826 5.23-1.63 7.058.442l7.516 8.52 16.21-18.656c1.81-2.086 4.966-2.308 7.052-.494 2.084 1.81 2.306 4.968.494 7.052l-19.956 22.966c-.946 1.088-2.312 1.714-3.754 1.72-.004 0-.012 0-.018 0-1.434 0-2.8-.616-3.75-1.692z" fill="#a29062"/><g fill="#014f39"><path d="m274.518 40.666h-20c-2.762 0-5 2.238-5 5s2.238 5 5 5h15v300.668h-219.036v-15c0-2.762-2.238-5-5-5s-5 2.238-5 5v20c0 2.762 2.238 5 5 5h229.036c2.762 0 5-2.238 5-5v-310.668c0-2.762-2.238-5-5-5z"/><g fill-rule="nonzero"><path d="m239.518 316.334v-310.668c0-2.762-2.238-5-5-5h-229.036c-2.762 0-5 2.238-5 5v310.668c0 2.762 2.238 5 5 5h229.036c2.762 0 5-2.238 5-5zm-10-5h-219.036v-300.668h219.036z"/><path d="m45.558 109.446h50.512c3.89 0 7.056-3.166 7.056-7.058v-23.28c0-9.354-6.044-17.32-14.434-20.202 1.772-3.202 2.698-6.878 2.56-10.656-.384-10.544-8.94-19.188-19.48-19.672-5.634-.276-11.004 1.74-15.084 5.636-4.082 3.898-6.33 9.152-6.33 14.796 0 3.544.902 6.936 2.544 9.906-8.374 2.888-14.404 10.85-14.404 20.192v23.28c.004 3.892 3.17 7.058 7.06 7.058zm2.944-30.338c0-6.26 5.092-11.352 11.352-11.352h3.894c2.308 0 4.316-1.58 4.86-3.822s-.518-4.564-2.57-5.624c-3.502-1.802-5.676-5.368-5.676-9.3 0-2.884 1.15-5.57 3.236-7.562 2.084-1.99 4.828-3.01 7.718-2.88 5.292.244 9.754 4.752 9.946 10.046.148 4.042-2.078 7.848-5.668 9.698-2.052 1.058-3.114 3.38-2.57 5.624.544 2.242 2.552 3.822 4.86 3.822h3.894c6.258 0 11.352 5.092 11.352 11.352v20.338h-44.628z"/><path d="m45.558 201.446h50.512c3.89 0 7.056-3.166 7.056-7.058v-23.28c0-9.354-6.044-17.32-14.434-20.202 1.772-3.202 2.698-6.876 2.56-10.656-.384-10.544-8.94-19.188-19.48-19.672-5.634-.28-11.004 1.742-15.084 5.636-4.082 3.898-6.33 9.152-6.33 14.794 0 3.544.902 6.936 2.544 9.906-8.374 2.888-14.404 10.85-14.404 20.192v23.28c.004 3.894 3.17 7.06 7.06 7.06zm2.944-30.338c0-6.26 5.092-11.352 11.352-11.352h3.894c2.308 0 4.316-1.58 4.86-3.822s-.518-4.564-2.57-5.624c-3.502-1.802-5.676-5.368-5.676-9.3 0-2.884 1.15-5.57 3.236-7.562 2.084-1.99 4.828-3.004 7.718-2.88 5.292.244 9.754 4.752 9.946 10.046.148 4.042-2.078 7.848-5.668 9.698-2.052 1.058-3.114 3.38-2.57 5.624.544 2.242 2.552 3.822 4.86 3.822h3.894c6.258 0 11.352 5.092 11.352 11.352v20.338h-44.628z"/><path d="m45.558 293.446h50.512c3.89 0 7.056-3.166 7.056-7.058v-23.28c0-9.354-6.044-17.32-14.434-20.202 1.772-3.202 2.698-6.876 2.56-10.656-.384-10.546-8.94-19.188-19.48-19.672-5.634-.268-11.004 1.74-15.084 5.636-4.082 3.898-6.33 9.152-6.33 14.794 0 3.544.902 6.936 2.544 9.906-8.374 2.888-14.404 10.85-14.404 20.192v23.28c.004 3.894 3.17 7.06 7.06 7.06zm2.944-30.338c0-6.26 5.092-11.352 11.352-11.352h3.894c2.308 0 4.316-1.58 4.86-3.822s-.518-4.564-2.57-5.622c-3.502-1.802-5.676-5.368-5.676-9.3 0-2.884 1.15-5.57 3.236-7.562 2.084-1.99 4.828-3 7.718-2.88 5.292.244 9.754 4.752 9.946 10.046.148 4.042-2.078 7.848-5.668 9.698-2.052 1.058-3.114 3.38-2.57 5.622s2.552 3.822 4.86 3.822h3.894c6.258 0 11.352 5.092 11.352 11.352v20.338h-44.628z"/><path d="m166.486 110.41c22.568 0 40.928-18.36 40.928-40.928s-18.36-40.928-40.928-40.928c-22.566 0-40.926 18.36-40.926 40.928s18.36 40.928 40.926 40.928zm0-71.856c17.052 0 30.928 13.876 30.928 30.928s-13.876 30.928-30.928 30.928-30.926-13.876-30.926-30.928 13.874-30.928 30.926-30.928z"/><path d="m166.486 201.928c22.568 0 40.928-18.36 40.928-40.928s-18.36-40.928-40.928-40.928c-22.566 0-40.926 18.36-40.926 40.928s18.36 40.928 40.926 40.928zm0-71.856c17.052 0 30.928 13.876 30.928 30.928s-13.876 30.928-30.928 30.928-30.926-13.876-30.926-30.928 13.874-30.928 30.926-30.928z"/><path d="m166.486 293.446c22.568 0 40.928-18.36 40.928-40.928s-18.36-40.928-40.928-40.928c-22.566 0-40.926 18.36-40.926 40.928s18.36 40.928 40.926 40.928zm0-71.856c17.052 0 30.928 13.876 30.928 30.928s-13.876 30.928-30.928 30.928-30.926-13.876-30.926-30.928 13.874-30.928 30.926-30.928z"/></g></g></g></svg>